# xmcd
#
# Track frame offsets:
#	150
#	15255
#	32847
#	50737
#	66722
#	80342
#	98840
#	120245
#	139107
#
# Disc length: 2129 seconds
#
# Revision: 1
# Processed by: cddbd v1.4PL0 Copyright (c) Steve Scherf et al.
# Submitted via: audiograbber 1.82.02
#
DISCID=72084f09
DTITLE=gladys knight and the pips - i feel a song
DYEAR=1974
DGENRE=soul
TTITLE0=i feel a song (in my heart)
TTITLE1=love finds it's own way
TTITLE2=seconds
TTITLE3=the going ups and the coming downs
TTITLE4=tenderness is his way
TTITLE5=better you go your way
TTITLE6=don't burn down the bridge
TTITLE7=the need to be
TTITLE8=the way we were
EXTD=
EXTT0=
EXTT1=
EXTT2=
EXTT3=
EXTT4=
EXTT5=
EXTT6=
EXTT7=
EXTT8=
PLAYORDER=
